<?xml version="1.0" encoding="utf-8"?>
<!-- Generator: Adobe Illustrator 26.0.1, SVG Export Plug-In . SVG Version: 6.00 Build 0)  -->
<svg version="1.1" id="Layer_1" xmlns="http://www.w3.org/2000/svg" xmlns:xlink="http://www.w3.org/1999/xlink" x="0px" y="0px"
	 viewBox="0 0 24 24" style="enable-background:new 0 0 24 24;" xml:space="preserve">
<style type="text/css">
	.st0{fill:#FFFFFF;}
</style>
<g>
	<path class="st0" d="M5,3h3c1.1,0,2,0.9,2,2v3c0,1.1-0.9,2-2,2H5c-1.1,0-2-0.9-2-2V5C3,3.9,3.9,3,5,3z"/>
	<path class="st0" d="M5,14h3c1.1,0,2,0.9,2,2v3c0,1.1-0.9,2-2,2H5c-1.1,0-2-0.9-2-2v-3C3,14.9,3.9,14,5,14z"/>
	<path class="st0" d="M16,3h3c1.1,0,2,0.9,2,2v3c0,1.1-0.9,2-2,2h-3c-1.1,0-2-0.9-2-2V5C14,3.9,14.9,3,16,3z"/>
	<path class="st0" d="M16,14h3c1.1,0,2,0.9,2,2v3c0,1.1-0.9,2-2,2h-3c-1.1,0-2-0.9-2-2v-3C14,14.9,14.9,14,16,14z"/>
</g>
</svg>
